# xmcd
#
# Track frame offsets: 
#        150
#        20745
#        37875
#        53450
#        75057
#        91387
#        114000
#        132362
#        148730
#        162440
#        181540
#        197307
#        210822
#        223580
#        240010
#        259672
#        279357
#
# Disc length: 3946 seconds
#
# Revision: 5
# Processed by: cddbd v1.5.2PL0 Copyright (c) Steve Scherf et al.
# Submitted via: ExactAudioCopyFreeDBPlugin 1.0
#
DISCID=c50f6811
DTITLE=Sonny Boy Williamson - Blues Masters Vol. 12
DYEAR=1963
DGENRE=Blues
TTITLE0=Little Girl
TTITLE1=Movin' Down The River
TTITLE2=Down And Out (Take 1)
TTITLE3=The Story Of Sonny Boy Williamson
TTITLE4=On My Way Back Home
TTITLE5=Rebecca Blues
TTITLE6=I Wonder Do I Have A Friend
TTITLE7=Down And Out (Take 2)
TTITLE8=Tippin' Through Customs
TTITLE9=I'm So Glad
TTITLE10=Baby Please Come Back Home
TTITLE11=November Boogie
TTITLE12=All Night Boogie
TTITLE13=Leavin' Blues
TTITLE14=Who'S Gonna Take Care Of You?
TTITLE15=It'S Rainy Outdoors Baby
TTITLE16=Have You Enjoyed My Play?
EXTD=YEAR: 1963 ID3G: 0
EXTT0=
EXTT1=
EXTT2=
EXTT3=
EXTT4=
EXTT5=
EXTT6=
EXTT7=
EXTT8=
EXTT9=
EXTT10=
EXTT11=
EXTT12=
EXTT13=
EXTT14=
EXTT15=
EXTT16=
PLAYORDER=
